<svg xmlns="http://www.w3.org/2000/svg" width="4250px" height="1350px">
<path d="M-35 20 L 0 20 " stroke="red" stroke-linecap="round" stroke-width="1" fill="none" transform = "rotate( 0,85,50)  translate( 45,30) "/>
<path d="M80 20 L 115 20 " stroke="red" stroke-linecap="round" stroke-width="1" fill="none" transform = "rotate( 0,85,50)  translate( 45,30) "/>
<path d="M0 20 L 10 20 Q 20 5 30 20 40 5 50 20 60 5 70 20 L 80 20 " stroke="red" stroke-linecap="round" stroke-width="1" fill="none" transform = "rotate( 0,85,50)  translate( 45,30) "/>
<text x="30" y="0" font-size="20" fill="red" font-style = "italic" transform = "rotate( 0,85,50)  translate( 45,30) ">
L1</text>
<path d= "M-25 250  L35 250 Q40 260 50 250 60 240 65 250 L125 250 " stroke="red" stroke-linecap="round" stroke-width="1" fill="none" transform = " rotate( 0,85,100) translate( 35,-150)  "/>
<circle cx = "50" cy = "250" r ="15" stroke="red" stroke-linecap="round" stroke-width="1" fill="none" transform = " rotate( 0,85,100) translate( 35,-150)  "/>
<text x="25" y="245" font-size="10" fill="red"  transform = " rotate( 0,85,100) translate( 35,-150)  ">
+</text>" 
<text x="40" y="230" font-size="20" fill="red" font-style = "italic" transform = " translate( 35,-150)  ">
V1</text>
<path d="M10 50 L 10 100 " stroke="blue" stroke-linecap="round" stroke-width="1" fill="none" />
<path d="M-50 20 L 0 20 " stroke="red" stroke-linecap="round" stroke-width="1" fill="none" transform = "rotate( 0,335,150)  translate( 310,130) "/>
<path d="M50 20 L 100 20 " stroke="red" stroke-linecap="round" stroke-width="1" fill="none" transform = "rotate( 0,335,150)  translate( 310,130) "/>
<path d="M0 20 L 20 20 20 5 20 35 " stroke="red" stroke-linecap="round" stroke-width="1" fill="none" transform = " rotate( 0,335,150) translate( 310,130)  " /> 
<path d="M 30 35 L 30 5 30 20 50 20 " stroke="red" stroke-linecap="round" stroke-width="1" fill="none" transform = " rotate( 0,335,150) translate( 310,130)  "/> 
<text x="15" y="0" font-size="20" fill="red" font-style = "italic" transform = " rotate( 0,335,150) translate( 310,130)  " >
C1</text>
<path d="M-25 10 L 20 10 30 5 40 15 50 5 60 15 70 5 80 10 125 10" stroke="red" stroke-linecap="round" stroke-width="1" fill="none" transform = " rotate( 0,585,200) translate( 535,190) " />
<text x="35" y="-10" font-size="20" fill="red" font-style = "italic" transform = " rotate( 0,585,200) translate( 535,190) " >
R1</text>
<path d="M-50 20 L 0 20 " stroke="red" stroke-linecap="round" stroke-width="1" fill="none" transform = "rotate( 0,835,200)  translate( 810,180) "/>
<path d="M50 20 L 100 20 " stroke="red" stroke-linecap="round" stroke-width="1" fill="none" transform = "rotate( 0,835,200)  translate( 810,180) "/>
<path d="M0 20 L 20 20 20 5 20 35 " stroke="red" stroke-linecap="round" stroke-width="1" fill="none" transform = " rotate( 0,835,200) translate( 810,180)  " /> 
<path d="M 30 35 L 30 5 30 20 50 20 " stroke="red" stroke-linecap="round" stroke-width="1" fill="none" transform = " rotate( 0,835,200) translate( 810,180)  "/> 
<text x="15" y="0" font-size="20" fill="red" font-style = "italic" transform = " rotate( 0,835,200) translate( 810,180)  " >
C2</text>
<path d="M-35 20 L 0 20 " stroke="red" stroke-linecap="round" stroke-width="1" fill="none" transform = "rotate( 0,835,250)  translate( 795,230) "/>
<path d="M80 20 L 115 20 " stroke="red" stroke-linecap="round" stroke-width="1" fill="none" transform = "rotate( 0,835,250)  translate( 795,230) "/>
<path d="M0 20 L 10 20 Q 20 5 30 20 40 5 50 20 60 5 70 20 L 80 20 " stroke="red" stroke-linecap="round" stroke-width="1" fill="none" transform = "rotate( 0,835,250)  translate( 795,230) "/>
<text x="30" y="0" font-size="20" fill="red" font-style = "italic" transform = "rotate( 0,835,250)  translate( 795,230) ">
L2</text>
<path d="M-50 20 L 0 20 " stroke="red" stroke-linecap="round" stroke-width="1" fill="none" transform = "rotate( 0,835,300)  translate( 810,280) "/>
<path d="M50 20 L 100 20 " stroke="red" stroke-linecap="round" stroke-width="1" fill="none" transform = "rotate( 0,835,300)  translate( 810,280) "/>
<path d="M0 20 L 20 20 20 5 20 35 " stroke="red" stroke-linecap="round" stroke-width="1" fill="none" transform = " rotate( 0,835,300) translate( 810,280)  " /> 
<path d="M 30 35 L 30 5 30 20 50 20 " stroke="red" stroke-linecap="round" stroke-width="1" fill="none" transform = " rotate( 0,835,300) translate( 810,280)  "/> 
<text x="15" y="0" font-size="20" fill="red" font-style = "italic" transform = " rotate( 0,835,300) translate( 810,280)  " >
C4</text>
<path d="M760 200 L 760 300 " stroke="blue" stroke-linecap="round" stroke-width="1" fill="none" />
<path d="M-25 10 L 20 10 30 5 40 15 50 5 60 15 70 5 80 10 125 10" stroke="red" stroke-linecap="round" stroke-width="1" fill="none" transform = " rotate( 0,1085,350) translate( 1035,340) " />
<text x="35" y="-10" font-size="20" fill="red" font-style = "italic" transform = " rotate( 0,1085,350) translate( 1035,340) " >
R2</text>
<path d="M-35 20 L 0 20 " stroke="red" stroke-linecap="round" stroke-width="1" fill="none" transform = "rotate( 0,1335,400)  translate( 1295,380) "/>
<path d="M80 20 L 115 20 " stroke="red" stroke-linecap="round" stroke-width="1" fill="none" transform = "rotate( 0,1335,400)  translate( 1295,380) "/>
<path d="M0 20 L 10 20 Q 20 5 30 20 40 5 50 20 60 5 70 20 L 80 20 " stroke="red" stroke-linecap="round" stroke-width="1" fill="none" transform = "rotate( 0,1335,400)  translate( 1295,380) "/>
<text x="30" y="0" font-size="20" fill="red" font-style = "italic" transform = "rotate( 0,1335,400)  translate( 1295,380) ">
L3</text>
<path d="M-50 20 L 0 20 " stroke="red" stroke-linecap="round" stroke-width="1" fill="none" transform = "rotate( 0,1335,450)  translate( 1310,430) "/>
<path d="M50 20 L 100 20 " stroke="red" stroke-linecap="round" stroke-width="1" fill="none" transform = "rotate( 0,1335,450)  translate( 1310,430) "/>
<path d="M0 20 L 20 20 20 5 20 35 " stroke="red" stroke-linecap="round" stroke-width="1" fill="none" transform = " rotate( 0,1335,450) translate( 1310,430)  " /> 
<path d="M 30 35 L 30 5 30 20 50 20 " stroke="red" stroke-linecap="round" stroke-width="1" fill="none" transform = " rotate( 0,1335,450) translate( 1310,430)  "/> 
<text x="15" y="0" font-size="20" fill="red" font-style = "italic" transform = " rotate( 0,1335,450) translate( 1310,430)  " >
C3</text>
<path d="M1260 400 L 1260 450 " stroke="blue" stroke-linecap="round" stroke-width="1" fill="none" />
<circle cx = "160" cy = "50" r ="2" stroke="blue" stroke-linecap="round" stroke-width="1" fill="blue"/>
<circle cx = "260" cy = "150" r ="2" stroke="blue" stroke-linecap="round" stroke-width="1" fill="blue"/>
<path d= "M160 50 L193 50 193 150 260 150 " stroke="blue" stroke-linecap="round" stroke-width="1" fill="none" />
<circle cx = "410" cy = "150" r ="2" stroke="blue" stroke-linecap="round" stroke-width="1" fill="blue"/>
<circle cx = "510" cy = "200" r ="2" stroke="blue" stroke-linecap="round" stroke-width="1" fill="blue"/>
<path d= "M410 150 L435 150 435 200 510 200 " stroke="blue" stroke-linecap="round" stroke-width="1" fill="none" />
<circle cx = "910" cy = "200" r ="2" stroke="blue" stroke-linecap="round" stroke-width="1" fill="blue"/>
<circle cx = "1010" cy = "350" r ="2" stroke="blue" stroke-linecap="round" stroke-width="1" fill="blue"/>
<path d= "M910 200 L926 200 926 350 1010 350 " stroke="blue" stroke-linecap="round" stroke-width="1" fill="none" />
<circle cx = "1160" cy = "350" r ="2" stroke="blue" stroke-linecap="round" stroke-width="1" fill="blue"/>
<circle cx = "1410" cy = "400" r ="2" stroke="blue" stroke-linecap="round" stroke-width="1" fill="blue"/>
<path d= "M1160 350 L1171 350 1171 417 1421 417 1421 417 1421 400 1410 400 " stroke="blue" stroke-linecap="round" stroke-width="1" fill="none" />
<circle cx = "660" cy = "200" r ="2" stroke="blue" stroke-linecap="round" stroke-width="1" fill="blue"/>
<circle cx = "910" cy = "250" r ="2" stroke="blue" stroke-linecap="round" stroke-width="1" fill="blue"/>
<path d= "M660 200 L670 200 670 267 920 267 920 267 920 250 910 250 " stroke="blue" stroke-linecap="round" stroke-width="1" fill="none" />
<circle cx = "160" cy = "100" r ="2" stroke="blue" stroke-linecap="round" stroke-width="1" fill="blue"/>
<circle cx = "1410" cy = "450" r ="2" stroke="blue" stroke-linecap="round" stroke-width="1" fill="blue"/>
<path d= "M160 100 L169 100 169 467 1419 467 1419 467 1419 450 1410 450 " stroke="blue" stroke-linecap="round" stroke-width="1" fill="none" />
<circle cx = "910" cy = "300" r ="2" stroke="blue" stroke-linecap="round" stroke-width="1" fill="blue"/>
<circle cx = "1410" cy = "450" r ="2" stroke="blue" stroke-linecap="round" stroke-width="1" fill="blue"/>
<path d= "M910 300 L918 300 918 467 1418 467 1418 467 1418 450 1410 450 " stroke="blue" stroke-linecap="round" stroke-width="1" fill="none" />
<circle cx = "918" cy = "467" r ="2" stroke="blue" stroke-linecap="round" stroke-width="1" fill="blue"/>
<path d= "M1410 450 L1423 450 1423 495 1411 495 1435 495 " stroke="blue" stroke-linecap="round" stroke-width="1" fill="none" />
<path d= "M1415 500 L1431 500  " stroke="blue" stroke-linecap="round" stroke-width="1" fill="none" />
<path d= "M1419 505 L1427 505  " stroke="blue" stroke-linecap="round" stroke-width="1" fill="none" />
</svg>
