<svg xmlns="http://www.w3.org/2000/svg">
<path d="M-25 10 L 20 10 30 5 40 15 50 5 60 15 70 5 80 10 125 10" stroke="red" stroke-linecap="round" stroke-width="1" fill="none" transform = " rotate( 0,100,100) translate( 50,90) " />
<text x="35" y="-10" font-size="20" fill="red" font-style = "italic" transform = " rotate( 0,100,100) translate( 50,90) " >
R1</text>
<path d="M-35 20 L 0 20 " stroke="red" stroke-linecap="round" stroke-width="1" fill="none" transform = "rotate( 0,100,200)  translate( 60,180) "/>
<path d="M80 20 L 115 20 " stroke="red" stroke-linecap="round" stroke-width="1" fill="none" transform = "rotate( 0,100,200)  translate( 60,180) "/>
<path d="M0 20 L 10 20 Q 20 5 30 20 40 5 50 20 60 5 70 20 L 80 20 " stroke="red" stroke-linecap="round" stroke-width="1" fill="none" transform = "rotate( 0,100,200)  translate( 60,180) "/>
<text x="30" y="0" font-size="20" fill="red" font-style = "italic" transform = "rotate( 0,100,200)  translate( 60,180) ">
L1</text>
<path d="M-50 20 L 0 20 " stroke="red" stroke-linecap="round" stroke-width="1" fill="none" transform = "rotate( 0,100,300)  translate( 75,280) "/>
<path d="M50 20 L 100 20 " stroke="red" stroke-linecap="round" stroke-width="1" fill="none" transform = "rotate( 0,100,300)  translate( 75,280) "/>
<path d="M0 20 L 20 20 20 5 20 35 " stroke="red" stroke-linecap="round" stroke-width="1" fill="none" transform = " rotate( 0,100,300) translate( 75,280)  " /> 
<path d="M 30 35 L 30 5 30 20 50 20 " stroke="red" stroke-linecap="round" stroke-width="1" fill="none" transform = " rotate( 0,100,300) translate( 75,280)  "/> 
<circle cx = "15" cy = "10" r ="2" stroke="red" stroke-linecap="round" stroke-width="1" fll="red" transform = " rotate( 0,100,300) translate( 75,280)  "/> 
<text x="15" y="0" font-size="20" fill="red" font-style = "italic" transform = " rotate( 0,100,300) translate( 75,280)  " >
C1</text>
<path d= "M-25 250  L35 250 Q40 260 50 250 60 240 65 250 L125 250 " stroke="red" stroke-linecap="round" stroke-width="1" fill="none" transform = " rotate( 0,100,400) translate( 50,150)  "/>
<circle cx = "50" cy = "250" r ="15" stroke="red" stroke-linecap="round" stroke-width="1" fill="none" transform = " rotate( 0,100,400) translate( 50,150)  "/>
<text x="25" y="245" font-size="10" fill="red"  transform = " rotate( 0,100,400) translate( 50,150)  ">
+</text>" 
<text x="40" y="230" font-size="20" fill="red" font-style = "italic" transform = " rotate( 0,100,400) translate( 50,150)  ">
V1</text>
<path d= "M-25 200  L27 200 " stroke="red" stroke-linecap="round" stroke-width="1" fill="none" transform = " rotate( 0,100,500) translate( 55,300)  "/>
<circle cx = "37" cy = "200" r ="10" stroke="red" stroke-linecap="round" stroke-width="1" fill="none" transform = " rotate( 0,100,500) translate( 55,300) "/>
<circle cx = "53" cy = "200" r ="10" stroke="red" stroke-linecap="round" stroke-width="1" fill="none" transform = " rotate( 0,100,500) translate( 55,300) "/>
<path d= "M63 200  L125 200 " stroke="red" stroke-linecap="round" stroke-width="1" fill="none" transform = " rotate( 0,100,500) translate( 55,300) "/>
<rect x = "20" y="185" width="50" height="30" stroke="red" stroke-linecap="round" stroke-width="1" fill="none" transform = " rotate( 0,100,500)  translate( 55,300)"/>
<text x="5" y="185" font-size="10" fill="red" font-style = "italic" transform = " rotate( 0,100,500)  translate( 55,300)">
V+</text>
<text x="70" y="185" font-size="10" fill="red" font-style = "italic" transform = " rotate( 0,100,500)  translate( 55,300)">
V-</text>
<text x="35" y="180" font-size="20" fill="red" font-style = "italic" transform = " rotate( 0,100,500) translate( 55,300)  ">
I1</text>
</svg>
